<svg width="103" height="24" viewBox="0 0 103 24" fill="none" xmlns="http://www.w3.org/2000/svg">
<path d="M35.806 17.1747C35.6287 17.1747 35.484 17.1234 35.372 17.0207C35.2693 16.918 35.218 16.7827 35.218 16.6147V7.86471C35.218 7.69671 35.2693 7.56138 35.372 7.45871C35.484 7.35605 35.6287 7.30471 35.806 7.30471H38.536C40.1133 7.30471 41.3313 7.73405 42.19 8.59271C43.058 9.44205 43.492 10.6554 43.492 12.2327C43.492 13.81 43.058 15.028 42.19 15.8867C41.322 16.7454 40.104 17.1747 38.536 17.1747H35.806ZM38.466 16.1947C41.0233 16.1947 42.302 14.874 42.302 12.2327C42.302 9.60071 41.0233 8.28471 38.466 8.28471H36.366V16.1947H38.466ZM48.1856 10.1887C49.8936 10.1887 50.7476 11.0847 50.7476 12.8767V16.6847C50.7476 16.8527 50.6963 16.988 50.5936 17.0907C50.5003 17.1934 50.3696 17.2447 50.2016 17.2447C50.0336 17.2447 49.8983 17.1934 49.7956 17.0907C49.6929 16.988 49.6416 16.8527 49.6416 16.6847V16.0127C49.4643 16.414 49.1936 16.7267 48.8296 16.9507C48.4656 17.1654 48.0456 17.2727 47.5696 17.2727C47.1309 17.2727 46.7249 17.184 46.3516 17.0067C45.9876 16.8294 45.6983 16.582 45.4836 16.2647C45.2689 15.9474 45.1616 15.5974 45.1616 15.2147C45.1616 14.7014 45.2923 14.3047 45.5536 14.0247C45.8149 13.7354 46.2443 13.53 46.8416 13.4087C47.4389 13.278 48.2696 13.2127 49.3336 13.2127H49.6416V12.7507C49.6416 12.1907 49.5249 11.78 49.2916 11.5187C49.0676 11.2574 48.6989 11.1267 48.1856 11.1267C47.5509 11.1267 46.9069 11.2994 46.2536 11.6447C46.0016 11.8034 45.8243 11.8827 45.7216 11.8827C45.6096 11.8827 45.5163 11.8407 45.4416 11.7567C45.3669 11.6727 45.3296 11.5654 45.3296 11.4347C45.3296 11.304 45.3669 11.192 45.4416 11.0987C45.5256 10.996 45.6563 10.8934 45.8336 10.7907C46.1603 10.604 46.5289 10.4594 46.9396 10.3567C47.3596 10.2447 47.7749 10.1887 48.1856 10.1887ZM47.7236 16.3767C48.2836 16.3767 48.7409 16.19 49.0956 15.8167C49.4596 15.434 49.6416 14.944 49.6416 14.3467V13.9407H49.3896C48.5683 13.9407 47.9429 13.978 47.5136 14.0527C47.0843 14.118 46.7763 14.2347 46.5896 14.4027C46.4123 14.5614 46.3236 14.7994 46.3236 15.1167C46.3236 15.4807 46.4543 15.784 46.7156 16.0267C46.9863 16.26 47.3223 16.3767 47.7236 16.3767ZM55.1194 17.2727C54.6901 17.2727 54.2794 17.2214 53.8874 17.1187C53.5048 17.016 53.1641 16.8714 52.8654 16.6847C52.6974 16.5727 52.5761 16.47 52.5014 16.3767C52.4361 16.274 52.4034 16.1527 52.4034 16.0127C52.4034 15.8914 52.4361 15.7934 52.5014 15.7187C52.5761 15.6347 52.6694 15.5927 52.7814 15.5927C52.8934 15.5927 53.0568 15.6627 53.2714 15.8027C53.5514 15.9707 53.8268 16.106 54.0974 16.2087C54.3774 16.302 54.7228 16.3487 55.1334 16.3487C55.6374 16.3487 56.0294 16.26 56.3094 16.0827C56.5894 15.9054 56.7294 15.6487 56.7294 15.3127C56.7294 15.1074 56.6781 14.944 56.5754 14.8227C56.4728 14.692 56.2954 14.58 56.0434 14.4867C55.7914 14.384 55.4228 14.2814 54.9374 14.1787C54.1161 14.0014 53.5281 13.7634 53.1734 13.4647C52.8188 13.166 52.6414 12.76 52.6414 12.2467C52.6414 11.8454 52.7534 11.4907 52.9774 11.1827C53.2014 10.8747 53.5094 10.632 53.9014 10.4547C54.3028 10.2774 54.7554 10.1887 55.2594 10.1887C55.6234 10.1887 55.9734 10.24 56.3094 10.3427C56.6548 10.436 56.9581 10.5714 57.2194 10.7487C57.5368 10.9727 57.6954 11.206 57.6954 11.4487C57.6954 11.57 57.6581 11.6727 57.5834 11.7567C57.5088 11.8407 57.4201 11.8827 57.3174 11.8827C57.2054 11.8827 57.0374 11.8034 56.8134 11.6447C56.5521 11.4767 56.3048 11.346 56.0714 11.2527C55.8381 11.1594 55.5488 11.1127 55.2034 11.1127C54.7648 11.1127 54.4101 11.2107 54.1394 11.4067C53.8781 11.6027 53.7474 11.864 53.7474 12.1907C53.7474 12.396 53.7941 12.564 53.8874 12.6947C53.9901 12.816 54.1534 12.928 54.3774 13.0307C54.6108 13.124 54.9421 13.2174 55.3714 13.3107C56.0061 13.4507 56.4961 13.6047 56.8414 13.7727C57.1961 13.9407 57.4481 14.146 57.5974 14.3887C57.7468 14.6314 57.8214 14.9394 57.8214 15.3127C57.8214 15.9007 57.5741 16.3767 57.0794 16.7407C56.5848 17.0954 55.9314 17.2727 55.1194 17.2727ZM62.994 10.1887C63.7967 10.1887 64.4033 10.4174 64.814 10.8747C65.2247 11.3227 65.43 11.9947 65.43 12.8907V16.6847C65.43 16.862 65.3787 17.002 65.276 17.1047C65.1733 17.198 65.038 17.2447 64.87 17.2447C64.6927 17.2447 64.5527 17.198 64.45 17.1047C64.3473 17.002 64.296 16.862 64.296 16.6847V12.9187C64.296 12.312 64.17 11.864 63.918 11.5747C63.6753 11.2854 63.2833 11.1407 62.742 11.1407C62.1167 11.1407 61.6173 11.332 61.244 11.7147C60.8707 12.0974 60.684 12.6154 60.684 13.2687V16.6847C60.684 16.862 60.6327 17.002 60.53 17.1047C60.4367 17.198 60.3013 17.2447 60.124 17.2447C59.9467 17.2447 59.8067 17.198 59.704 17.1047C59.6013 17.002 59.55 16.862 59.55 16.6847V7.78071C59.55 7.62205 59.6013 7.49138 59.704 7.38871C59.816 7.28605 59.956 7.23471 60.124 7.23471C60.3013 7.23471 60.4367 7.28605 60.53 7.38871C60.6327 7.48205 60.684 7.61271 60.684 7.78071V11.4487C60.908 11.038 61.2207 10.7254 61.622 10.5107C62.0233 10.296 62.4807 10.1887 62.994 10.1887ZM70.937 10.1887C71.5344 10.1887 72.0617 10.3334 72.519 10.6227C72.9764 10.912 73.331 11.3227 73.583 11.8547C73.835 12.3867 73.961 13.0027 73.961 13.7027C73.961 14.412 73.835 15.0374 73.583 15.5787C73.331 16.1107 72.9764 16.526 72.519 16.8247C72.0617 17.1234 71.5344 17.2727 70.937 17.2727C70.405 17.2727 69.9384 17.156 69.537 16.9227C69.145 16.6894 68.8464 16.358 68.641 15.9287V16.6847C68.641 16.8527 68.5897 16.988 68.487 17.0907C68.3937 17.1934 68.2584 17.2447 68.081 17.2447C67.9037 17.2447 67.7637 17.1934 67.661 17.0907C67.5584 16.988 67.507 16.8527 67.507 16.6847V7.78071C67.507 7.62205 67.5584 7.49138 67.661 7.38871C67.7637 7.28605 67.9037 7.23471 68.081 7.23471C68.2584 7.23471 68.3937 7.28605 68.487 7.38871C68.5897 7.48205 68.641 7.61271 68.641 7.78071V11.5327C68.8464 11.1034 69.145 10.772 69.537 10.5387C69.9384 10.3054 70.405 10.1887 70.937 10.1887ZM70.713 16.3347C71.3757 16.3347 71.889 16.106 72.253 15.6487C72.617 15.182 72.799 14.5334 72.799 13.7027C72.799 12.8907 72.617 12.2607 72.253 11.8127C71.889 11.3647 71.3757 11.1407 70.713 11.1407C70.0504 11.1407 69.537 11.3647 69.173 11.8127C68.8184 12.2607 68.641 12.9 68.641 13.7307C68.641 14.5614 68.8184 15.2054 69.173 15.6627C69.537 16.1107 70.0504 16.3347 70.713 16.3347ZM78.4835 17.2727C77.8395 17.2727 77.2701 17.128 76.7755 16.8387C76.2901 16.5494 75.9121 16.1387 75.6415 15.6067C75.3801 15.0654 75.2495 14.44 75.2495 13.7307C75.2495 13.0214 75.3801 12.4007 75.6415 11.8687C75.9121 11.3274 76.2901 10.912 76.7755 10.6227C77.2701 10.3334 77.8395 10.1887 78.4835 10.1887C79.1275 10.1887 79.6968 10.3334 80.1915 10.6227C80.6861 10.912 81.0641 11.3274 81.3255 11.8687C81.5961 12.4007 81.7315 13.0214 81.7315 13.7307C81.7315 14.44 81.5961 15.0654 81.3255 15.6067C81.0641 16.1387 80.6861 16.5494 80.1915 16.8387C79.6968 17.128 79.1275 17.2727 78.4835 17.2727ZM78.4835 16.3347C79.1555 16.3347 79.6688 16.1154 80.0235 15.6767C80.3875 15.2287 80.5695 14.58 80.5695 13.7307C80.5695 12.9 80.3875 12.2607 80.0235 11.8127C79.6595 11.3554 79.1461 11.1267 78.4835 11.1267C77.8208 11.1267 77.3075 11.3554 76.9435 11.8127C76.5795 12.2607 76.3975 12.9 76.3975 13.7307C76.3975 14.5707 76.5748 15.2147 76.9295 15.6627C77.2935 16.1107 77.8115 16.3347 78.4835 16.3347ZM86.2071 10.1887C87.9151 10.1887 88.7691 11.0847 88.7691 12.8767V16.6847C88.7691 16.8527 88.7178 16.988 88.6151 17.0907C88.5218 17.1934 88.3911 17.2447 88.2231 17.2447C88.0551 17.2447 87.9198 17.1934 87.8171 17.0907C87.7144 16.988 87.6631 16.8527 87.6631 16.6847V16.0127C87.4858 16.414 87.2151 16.7267 86.8511 16.9507C86.4871 17.1654 86.0671 17.2727 85.5911 17.2727C85.1524 17.2727 84.7464 17.184 84.3731 17.0067C84.0091 16.8294 83.7198 16.582 83.5051 16.2647C83.2904 15.9474 83.1831 15.5974 83.1831 15.2147C83.1831 14.7014 83.3138 14.3047 83.5751 14.0247C83.8364 13.7354 84.2658 13.53 84.8631 13.4087C85.4604 13.278 86.2911 13.2127 87.3551 13.2127H87.6631V12.7507C87.6631 12.1907 87.5464 11.78 87.3131 11.5187C87.0891 11.2574 86.7204 11.1267 86.2071 11.1267C85.5724 11.1267 84.9284 11.2994 84.2751 11.6447C84.0231 11.8034 83.8458 11.8827 83.7431 11.8827C83.6311 11.8827 83.5378 11.8407 83.4631 11.7567C83.3884 11.6727 83.3511 11.5654 83.3511 11.4347C83.3511 11.304 83.3884 11.192 83.4631 11.0987C83.5471 10.996 83.6778 10.8934 83.8551 10.7907C84.1818 10.604 84.5504 10.4594 84.9611 10.3567C85.3811 10.2447 85.7964 10.1887 86.2071 10.1887ZM85.7451 16.3767C86.3051 16.3767 86.7624 16.19 87.1171 15.8167C87.4811 15.434 87.6631 14.944 87.6631 14.3467V13.9407H87.4111C86.5898 13.9407 85.9644 13.978 85.5351 14.0527C85.1058 14.118 84.7978 14.2347 84.6111 14.4027C84.4338 14.5614 84.3451 14.7994 84.3451 15.1167C84.3451 15.4807 84.4758 15.784 84.7371 16.0267C85.0078 16.26 85.3438 16.3767 85.7451 16.3767ZM94.2189 10.2167C94.6109 10.1887 94.8069 10.3474 94.8069 10.6927C94.8069 10.842 94.7649 10.9634 94.6809 11.0567C94.5969 11.1407 94.4523 11.192 94.2469 11.2107L93.8269 11.2527C93.2016 11.3087 92.7349 11.5327 92.4269 11.9247C92.1283 12.3074 91.9789 12.76 91.9789 13.2827V16.6847C91.9789 16.8714 91.9276 17.0114 91.8249 17.1047C91.7223 17.198 91.5869 17.2447 91.4189 17.2447C91.2509 17.2447 91.1109 17.198 90.9989 17.1047C90.8963 17.002 90.8449 16.862 90.8449 16.6847V10.7767C90.8449 10.5994 90.9009 10.464 91.0129 10.3707C91.1249 10.268 91.2603 10.2167 91.4189 10.2167C91.5683 10.2167 91.6943 10.268 91.7969 10.3707C91.8996 10.464 91.9509 10.5947 91.9509 10.7627V11.5467C92.1469 11.136 92.4223 10.8234 92.7769 10.6087C93.1409 10.394 93.5563 10.268 94.0229 10.2307L94.2189 10.2167ZM101.118 7.23471C101.295 7.23471 101.435 7.28605 101.538 7.38871C101.64 7.49138 101.692 7.62205 101.692 7.78071V16.6847C101.692 16.8527 101.64 16.988 101.538 17.0907C101.435 17.1934 101.295 17.2447 101.118 17.2447C100.94 17.2447 100.8 17.1934 100.698 17.0907C100.604 16.988 100.558 16.8527 100.558 16.6847V15.9287C100.352 16.358 100.049 16.6894 99.6478 16.9227C99.2558 17.156 98.7938 17.2727 98.2618 17.2727C97.6644 17.2727 97.1371 17.1234 96.6798 16.8247C96.2224 16.526 95.8678 16.1107 95.6158 15.5787C95.3638 15.0374 95.2378 14.412 95.2378 13.7027C95.2378 13.0027 95.3638 12.3867 95.6158 11.8547C95.8678 11.3227 96.2224 10.912 96.6798 10.6227C97.1371 10.3334 97.6644 10.1887 98.2618 10.1887C98.7938 10.1887 99.2558 10.3054 99.6478 10.5387C100.049 10.772 100.352 11.1034 100.558 11.5327V7.78071C100.558 7.61271 100.604 7.48205 100.698 7.38871C100.8 7.28605 100.94 7.23471 101.118 7.23471ZM98.4858 16.3347C99.1484 16.3347 99.6571 16.1107 100.012 15.6627C100.376 15.2054 100.558 14.5614 100.558 13.7307C100.558 12.9 100.376 12.2607 100.012 11.8127C99.6571 11.3647 99.1484 11.1407 98.4858 11.1407C97.8231 11.1407 97.3051 11.3647 96.9318 11.8127C96.5678 12.2607 96.3858 12.8907 96.3858 13.7027C96.3858 14.5334 96.5678 15.182 96.9318 15.6487C97.3051 16.106 97.8231 16.3347 98.4858 16.3347Z" fill="white"/>
<path d="M15.84 4.21149C7.56 1.57149 0 7.69149 0 15.6115C0 16.6915 0.12 18.7315 0.48 19.9315C0.48 20.1715 0.72 20.4115 0.96 20.4115H22.92C23.16 20.4115 23.4 20.1715 23.52 19.9315C23.76 18.7315 24 16.6915 24 15.6115C24 10.4515 20.76 5.77149 15.84 4.21149ZM12 6.01149C12.72 6.01149 13.2 6.49149 13.2 7.21149C13.2 7.93149 12.72 8.41149 12 8.41149C11.28 8.41149 10.8 7.93149 10.8 7.21149C10.8 6.49149 11.28 6.01149 12 6.01149ZM3.6 16.8115C2.88 16.8115 2.4 16.3315 2.4 15.6115C2.4 14.8915 2.88 14.4115 3.6 14.4115C4.32 14.4115 4.8 14.8915 4.8 15.6115C4.8 16.3315 4.32 16.8115 3.6 16.8115ZM6.96 10.5715C6.48 11.0515 5.76 11.0515 5.28 10.5715C4.8 10.0915 4.8 9.25149 5.16 8.77149C5.64 8.29149 6.36 8.29149 6.84 8.77149C7.32 9.25149 7.32 10.0915 6.96 10.5715ZM12 18.0115C10.68 18.0115 9.48 16.8115 9.84 15.6115C10.2 14.4115 12 10.8115 12 10.8115C12 10.8115 13.8 14.4115 14.16 15.6115C14.52 16.8115 13.32 18.0115 12 18.0115ZM18.84 10.5715C18.36 11.0515 17.64 11.0515 17.16 10.5715C16.68 10.0915 16.68 9.37149 17.16 8.89149C17.64 8.41149 18.36 8.41149 18.84 8.89149C19.2 9.25149 19.2 10.0915 18.84 10.5715ZM20.4 16.8115C19.68 16.8115 19.2 16.3315 19.2 15.6115C19.2 14.8915 19.68 14.4115 20.4 14.4115C21.12 14.4115 21.6 14.8915 21.6 15.6115C21.6 16.3315 21.12 16.8115 20.4 16.8115Z" fill="white"/>
</svg>
